<svg width="67" height="13" viewBox="0 0 67 13" fill="none" xmlns="http://www.w3.org/2000/svg">
<path d="M11.68 0.672L7.616 8.56V12H4.064V8.56L0 0.672H4.064L5.872 4.688L7.68 0.672H11.68ZM16.0395 3.504V4.896H19.5595V7.568H16.0395V9.168H20.0395V12H12.4875V0.672H20.0395V3.504H16.0395ZM27.0741 12L24.9461 7.936H24.9301V12H21.3781V0.672H26.6581C27.5755 0.672 28.3595 0.837333 29.0101 1.168C29.6608 1.488 30.1461 1.93067 30.4661 2.496C30.7968 3.05067 30.9621 3.68 30.9621 4.384C30.9621 5.14133 30.7488 5.81333 30.3221 6.4C29.9061 6.98667 29.3035 7.408 28.5141 7.664L30.9781 12H27.0741ZM24.9301 5.568H26.3381C26.6795 5.568 26.9355 5.49333 27.1061 5.344C27.2768 5.184 27.3621 4.93867 27.3621 4.608C27.3621 4.30933 27.2715 4.07467 27.0901 3.904C26.9195 3.73333 26.6688 3.648 26.3381 3.648H24.9301V5.568ZM35.6489 0.672V12H32.0969V0.672H35.6489ZM50.8691 0.672V12H47.3331V6.352L45.5891 12H42.5491L40.8051 6.352V12H37.2531V0.672H41.6051L44.1011 7.472L46.5331 0.672H50.8691ZM54.2319 12.128C53.6132 12.128 53.1172 11.9627 52.7439 11.632C52.3705 11.3013 52.1839 10.8853 52.1839 10.384C52.1839 9.872 52.3705 9.45067 52.7439 9.12C53.1172 8.77867 53.6132 8.608 54.2319 8.608C54.8399 8.608 55.3305 8.77867 55.7039 9.12C56.0772 9.45067 56.2639 9.872 56.2639 10.384C56.2639 10.8853 56.0772 11.3013 55.7039 11.632C55.3305 11.9627 54.8399 12.128 54.2319 12.128ZM66.3173 7.408C66.3173 7.65333 66.3013 7.888 66.2693 8.112H60.5573C60.6106 8.89067 60.9359 9.28 61.5333 9.28C61.9173 9.28 62.1946 9.104 62.3653 8.752H66.1253C65.9973 9.392 65.7253 9.968 65.3093 10.48C64.9039 10.9813 64.3866 11.3813 63.7573 11.68C63.1386 11.968 62.4559 12.112 61.7093 12.112C60.8133 12.112 60.0133 11.9253 59.3093 11.552C58.6159 11.1787 58.0719 10.6453 57.6773 9.952C57.2933 9.248 57.1013 8.42667 57.1013 7.488C57.1013 6.54933 57.2933 5.73333 57.6773 5.04C58.0719 4.336 58.6159 3.79733 59.3093 3.424C60.0133 3.05067 60.8133 2.864 61.7093 2.864C62.6053 2.864 63.3999 3.05067 64.0933 3.424C64.7973 3.78667 65.3413 4.30933 65.7253 4.992C66.1199 5.67467 66.3173 6.48 66.3173 7.408ZM62.7173 6.56C62.7173 6.26133 62.6213 6.03733 62.4293 5.888C62.2373 5.728 61.9973 5.648 61.7093 5.648C61.0799 5.648 60.7119 5.952 60.6053 6.56H62.7173Z" fill="white"/>
</svg>
