<svg width="83" height="16" viewBox="0 0 83 16" fill="none" xmlns="http://www.w3.org/2000/svg">
<path d="M14.6 0.84L9.52 10.7V15H5.08V10.7L0 0.84H5.08L7.34 5.86L9.6 0.84H14.6ZM20.0494 4.38V6.12H24.4494V9.46H20.0494V11.46H25.0494V15H15.6094V0.84H25.0494V4.38H20.0494ZM33.8427 15L31.1827 9.92H31.1627V15H26.7227V0.84H33.3227C34.4693 0.84 35.4493 1.04667 36.2627 1.46C37.076 1.86 37.6827 2.41333 38.0827 3.12C38.496 3.81333 38.7027 4.6 38.7027 5.48C38.7027 6.42667 38.436 7.26667 37.9027 8C37.3827 8.73333 36.6293 9.26 35.6427 9.58L38.7227 15H33.8427ZM31.1627 6.96H32.9227C33.3493 6.96 33.6693 6.86667 33.8827 6.68C34.096 6.48 34.2027 6.17333 34.2027 5.76C34.2027 5.38667 34.0893 5.09333 33.8627 4.88C33.6493 4.66667 33.336 4.56 32.9227 4.56H31.1627V6.96ZM44.5611 0.84V15H40.1211V0.84H44.5611ZM63.5864 0.84V15H59.1664V7.94L56.9864 15H53.1864L51.0064 7.94V15H46.5664V0.84H52.0064L55.1264 9.34L58.1664 0.84H63.5864ZM67.7898 15.16C67.0165 15.16 66.3965 14.9533 65.9298 14.54C65.4632 14.1267 65.2298 13.6067 65.2298 12.98C65.2298 12.34 65.4632 11.8133 65.9298 11.4C66.3965 10.9733 67.0165 10.76 67.7898 10.76C68.5498 10.76 69.1632 10.9733 69.6298 11.4C70.0965 11.8133 70.3298 12.34 70.3298 12.98C70.3298 13.6067 70.0965 14.1267 69.6298 14.54C69.1632 14.9533 68.5498 15.16 67.7898 15.16ZM82.8966 9.26C82.8966 9.56667 82.8766 9.86 82.8366 10.14H75.6966C75.7632 11.1133 76.1699 11.6 76.9166 11.6C77.3966 11.6 77.7432 11.38 77.9566 10.94H82.6566C82.4966 11.74 82.1566 12.46 81.6366 13.1C81.1299 13.7267 80.4832 14.2267 79.6966 14.6C78.9232 14.96 78.0699 15.14 77.1366 15.14C76.0166 15.14 75.0166 14.9067 74.1366 14.44C73.2699 13.9733 72.5899 13.3067 72.0966 12.44C71.6166 11.56 71.3766 10.5333 71.3766 9.36C71.3766 8.18667 71.6166 7.16667 72.0966 6.3C72.5899 5.42 73.2699 4.74667 74.1366 4.28C75.0166 3.81333 76.0166 3.58 77.1366 3.58C78.2566 3.58 79.2499 3.81333 80.1166 4.28C80.9966 4.73333 81.6766 5.38667 82.1566 6.24C82.6499 7.09333 82.8966 8.1 82.8966 9.26ZM78.3966 8.2C78.3966 7.82667 78.2766 7.54667 78.0366 7.36C77.7966 7.16 77.4966 7.06 77.1366 7.06C76.3499 7.06 75.8899 7.44 75.7566 8.2H78.3966Z" fill="white"/>
</svg>
